<svg xmlns="http://www.w3.org/2000/svg" xmlns:xlink="http://www.w3.org/1999/xlink" width="81" zoomAndPan="magnify" viewBox="0 0 60.75 33.749998" height="45" preserveAspectRatio="xMidYMid meet" version="1.0"><defs><g/></defs><g fill="#ffffff" fill-opacity="1"><g transform="translate(9.672881, 14.978379)"><g><path d="M 0.46875 0 L 0.46875 -0.1875 C 0.59375 -0.394531 0.695312 -0.804688 0.78125 -1.421875 C 0.863281 -2.046875 0.90625 -2.851562 0.90625 -3.84375 L 0.90625 -6.640625 C 0.90625 -7.648438 0.863281 -8.460938 0.78125 -9.078125 C 0.695312 -9.691406 0.59375 -10.101562 0.46875 -10.3125 L 0.46875 -10.5 L 3.171875 -10.5 L 3.171875 -10.3125 C 3.035156 -10.101562 2.925781 -9.691406 2.84375 -9.078125 C 2.769531 -8.460938 2.734375 -7.648438 2.734375 -6.640625 L 2.734375 -3.84375 C 2.734375 -1.851562 2.878906 -0.632812 3.171875 -0.1875 L 3.171875 0 Z M 0.46875 0 "/></g></g></g><g fill="#ffffff" fill-opacity="1"><g transform="translate(13.283707, 14.978379)"><g><path d="M 0.515625 0 L 0.515625 -0.1875 C 0.628906 -0.394531 0.722656 -0.804688 0.796875 -1.421875 C 0.867188 -2.035156 0.90625 -2.835938 0.90625 -3.828125 L 0.90625 -5.125 C 0.90625 -5.988281 0.859375 -6.601562 0.765625 -6.96875 C 0.671875 -7.332031 0.570312 -7.578125 0.46875 -7.703125 L 0.46875 -7.859375 C 0.800781 -7.878906 1.132812 -7.929688 1.46875 -8.015625 C 1.800781 -8.109375 2.078125 -8.25 2.296875 -8.4375 L 2.453125 -8.4375 L 2.453125 -6.625 L 2.609375 -6.625 C 2.828125 -7.1875 3.1875 -7.628906 3.6875 -7.953125 C 4.1875 -8.273438 4.769531 -8.4375 5.4375 -8.4375 C 6.101562 -8.4375 6.679688 -8.28125 7.171875 -7.96875 C 7.660156 -7.65625 8.039062 -7.238281 8.3125 -6.71875 C 8.582031 -6.195312 8.71875 -5.625 8.71875 -5 L 8.71875 -3.8125 C 8.71875 -1.832031 8.851562 -0.625 9.125 -0.1875 L 9.125 0 L 6.75 0 L 6.75 -0.1875 C 7.019531 -0.625 7.15625 -1.832031 7.15625 -3.8125 L 7.15625 -5.109375 C 7.15625 -5.578125 7.054688 -6 6.859375 -6.375 C 6.660156 -6.75 6.382812 -7.050781 6.03125 -7.28125 C 5.675781 -7.507812 5.265625 -7.625 4.796875 -7.625 C 4.328125 -7.625 3.914062 -7.507812 3.5625 -7.28125 C 3.21875 -7.0625 2.945312 -6.757812 2.75 -6.375 C 2.550781 -6 2.453125 -5.578125 2.453125 -5.109375 L 2.453125 -3.8125 C 2.453125 -1.832031 2.585938 -0.625 2.859375 -0.1875 L 2.859375 0 Z M 0.515625 0 "/></g></g></g><g fill="#ffffff" fill-opacity="1"><g transform="translate(22.842667, 14.978379)"><g><path d="M 1.203125 0 L 1.203125 -0.1875 C 1.316406 -0.394531 1.410156 -0.800781 1.484375 -1.40625 C 1.554688 -2.019531 1.59375 -2.820312 1.59375 -3.8125 L 1.59375 -7.9375 L -0.296875 -7.9375 L -0.296875 -8.25 L 2.1875 -8.25 L 2.1875 -8.40625 C 1.570312 -8.5625 1.082031 -8.847656 0.71875 -9.265625 C 0.351562 -9.691406 0.171875 -10.164062 0.171875 -10.6875 C 0.171875 -11.363281 0.398438 -11.90625 0.859375 -12.3125 C 1.316406 -12.726562 1.894531 -12.9375 2.59375 -12.9375 C 3.050781 -12.9375 3.457031 -12.84375 3.8125 -12.65625 C 4.175781 -12.476562 4.460938 -12.226562 4.671875 -11.90625 C 4.878906 -11.59375 4.984375 -11.226562 4.984375 -10.8125 C 4.984375 -10.476562 4.898438 -10.1875 4.734375 -9.9375 C 4.578125 -9.6875 4.367188 -9.492188 4.109375 -9.359375 C 3.859375 -9.234375 3.585938 -9.171875 3.296875 -9.171875 C 2.898438 -9.171875 2.585938 -9.285156 2.359375 -9.515625 C 2.128906 -9.742188 2.015625 -9.984375 2.015625 -10.234375 C 2.015625 -10.429688 2.0625 -10.601562 2.15625 -10.75 L 2.375 -10.71875 C 2.300781 -10.382812 2.359375 -10.109375 2.546875 -9.890625 C 2.742188 -9.671875 2.96875 -9.5625 3.21875 -9.5625 C 3.507812 -9.5625 3.738281 -9.660156 3.90625 -9.859375 C 4.070312 -10.054688 4.15625 -10.300781 4.15625 -10.59375 C 4.15625 -10.976562 4.015625 -11.285156 3.734375 -11.515625 C 3.460938 -11.742188 3.125 -11.859375 2.71875 -11.859375 C 2.28125 -11.859375 1.921875 -11.722656 1.640625 -11.453125 C 1.359375 -11.191406 1.21875 -10.820312 1.21875 -10.34375 C 1.21875 -9.9375 1.34375 -9.578125 1.59375 -9.265625 C 1.84375 -8.953125 2.191406 -8.703125 2.640625 -8.515625 C 3.097656 -8.335938 3.625 -8.25 4.21875 -8.25 L 5.171875 -8.25 L 5.171875 -7.9375 L 3.15625 -7.9375 L 3.15625 -3.8125 C 3.15625 -1.832031 3.289062 -0.625 3.5625 -0.1875 L 3.5625 0 Z M 1.203125 0 "/></g></g></g><g fill="#ffffff" fill-opacity="1"><g transform="translate(27.652115, 14.978379)"><g><path d="M 2.640625 0.1875 C 2.253906 0.1875 1.929688 0.0859375 1.671875 -0.109375 C 1.410156 -0.304688 1.21875 -0.5625 1.09375 -0.875 C 0.96875 -1.195312 0.90625 -1.539062 0.90625 -1.90625 L 0.90625 -7.796875 C 0.90625 -8.367188 0.882812 -8.820312 0.84375 -9.15625 C 0.800781 -9.5 0.742188 -9.765625 0.671875 -9.953125 C 0.609375 -10.140625 0.539062 -10.269531 0.46875 -10.34375 L 0.46875 -10.5 C 0.789062 -10.519531 1.117188 -10.578125 1.453125 -10.671875 C 1.796875 -10.765625 2.078125 -10.90625 2.296875 -11.09375 L 2.453125 -11.09375 L 2.453125 -2.125 C 2.453125 -1.757812 2.515625 -1.441406 2.640625 -1.171875 C 2.765625 -0.898438 2.960938 -0.765625 3.234375 -0.765625 C 3.441406 -0.765625 3.59375 -0.835938 3.6875 -0.984375 C 3.789062 -1.140625 3.863281 -1.3125 3.90625 -1.5 L 4.046875 -1.484375 C 4.023438 -1.222656 3.960938 -0.960938 3.859375 -0.703125 C 3.765625 -0.441406 3.617188 -0.226562 3.421875 -0.0625 C 3.234375 0.101562 2.972656 0.1875 2.640625 0.1875 Z M 2.640625 0.1875 "/></g></g></g><g fill="#ffffff" fill-opacity="1"><g transform="translate(31.907198, 14.978379)"><g><path d="M 3.921875 0.1875 C 3.253906 0.1875 2.695312 0.03125 2.25 -0.28125 C 1.8125 -0.601562 1.476562 -1.023438 1.25 -1.546875 C 1.03125 -2.066406 0.921875 -2.640625 0.921875 -3.265625 L 0.921875 -5.125 C 0.921875 -5.988281 0.875 -6.601562 0.78125 -6.96875 C 0.695312 -7.332031 0.601562 -7.578125 0.5 -7.703125 L 0.5 -7.859375 C 0.820312 -7.878906 1.148438 -7.929688 1.484375 -8.015625 C 1.828125 -8.109375 2.109375 -8.25 2.328125 -8.4375 L 2.484375 -8.4375 L 2.484375 -3.171875 C 2.484375 -2.691406 2.554688 -2.257812 2.703125 -1.875 C 2.859375 -1.5 3.09375 -1.191406 3.40625 -0.953125 C 3.71875 -0.722656 4.109375 -0.609375 4.578125 -0.609375 C 5.035156 -0.609375 5.421875 -0.71875 5.734375 -0.9375 C 6.054688 -1.164062 6.304688 -1.460938 6.484375 -1.828125 C 6.660156 -2.203125 6.75 -2.613281 6.75 -3.0625 L 6.75 -5.125 C 6.75 -5.988281 6.707031 -6.601562 6.625 -6.96875 C 6.539062 -7.332031 6.441406 -7.578125 6.328125 -7.703125 L 6.328125 -7.859375 C 6.660156 -7.878906 6.992188 -7.929688 7.328125 -8.015625 C 7.660156 -8.109375 7.9375 -8.25 8.15625 -8.4375 L 8.328125 -8.4375 L 8.328125 -2.0625 C 8.328125 -1.695312 8.382812 -1.390625 8.5 -1.140625 C 8.613281 -0.890625 8.804688 -0.765625 9.078125 -0.765625 C 9.273438 -0.765625 9.425781 -0.835938 9.53125 -0.984375 C 9.632812 -1.140625 9.703125 -1.3125 9.734375 -1.5 L 9.890625 -1.484375 C 9.867188 -1.222656 9.804688 -0.960938 9.703125 -0.703125 C 9.609375 -0.441406 9.460938 -0.226562 9.265625 -0.0625 C 9.066406 0.101562 8.804688 0.1875 8.484375 0.1875 C 7.878906 0.1875 7.453125 0.015625 7.203125 -0.328125 C 6.953125 -0.679688 6.800781 -1.101562 6.75 -1.59375 L 6.59375 -1.59375 C 6.40625 -1.039062 6.082031 -0.601562 5.625 -0.28125 C 5.164062 0.03125 4.597656 0.1875 3.921875 0.1875 Z M 3.921875 0.1875 "/></g></g></g><g fill="#ffffff" fill-opacity="1"><g transform="translate(41.630968, 14.978379)"><g><path d="M 0.46875 -0.015625 L 0.46875 -0.1875 C 0.78125 -0.394531 1.160156 -0.765625 1.609375 -1.296875 C 2.054688 -1.835938 2.601562 -2.59375 3.25 -3.5625 L 3.78125 -4.28125 L 3.5 -4.6875 C 3.164062 -5.132812 2.84375 -5.585938 2.53125 -6.046875 C 2.21875 -6.515625 1.921875 -6.929688 1.640625 -7.296875 C 1.359375 -7.660156 1.09375 -7.914062 0.84375 -8.0625 L 0.84375 -8.25 L 3.515625 -8.25 L 3.515625 -8.0625 C 3.523438 -7.863281 3.648438 -7.519531 3.890625 -7.03125 C 4.128906 -6.539062 4.519531 -5.863281 5.0625 -5 L 5.234375 -5 C 5.773438 -5.832031 6.171875 -6.488281 6.421875 -6.96875 C 6.671875 -7.457031 6.789062 -7.820312 6.78125 -8.0625 L 6.78125 -8.25 L 8.09375 -8.25 L 8.09375 -8.0625 C 7.789062 -7.863281 7.4375 -7.5 7.03125 -6.96875 C 6.625 -6.445312 6.09375 -5.75 5.4375 -4.875 L 5.296875 -4.671875 L 6.03125 -3.5625 C 6.375 -3.113281 6.707031 -2.65625 7.03125 -2.1875 C 7.363281 -1.71875 7.675781 -1.300781 7.96875 -0.9375 C 8.257812 -0.570312 8.515625 -0.320312 8.734375 -0.1875 L 8.734375 0 L 6.046875 0 L 6.046875 -0.1875 C 6.046875 -0.320312 5.984375 -0.535156 5.859375 -0.828125 C 5.734375 -1.117188 5.519531 -1.515625 5.21875 -2.015625 C 4.925781 -2.523438 4.519531 -3.171875 4 -3.953125 L 3.859375 -3.953125 C 3.335938 -3.179688 2.925781 -2.539062 2.625 -2.03125 C 2.332031 -1.53125 2.125 -1.132812 2 -0.84375 C 1.882812 -0.550781 1.820312 -0.332031 1.8125 -0.1875 L 1.8125 -0.015625 Z M 0.46875 -0.015625 "/></g></g></g><g fill="#e3c026" fill-opacity="1"><g transform="translate(2.146601, 28.379113)"><g><path d="M 4.6875 0.1875 C 3.914062 0.1875 3.238281 0.015625 2.65625 -0.328125 C 2.070312 -0.679688 1.617188 -1.148438 1.296875 -1.734375 C 0.984375 -2.328125 0.828125 -2.984375 0.828125 -3.703125 L 0.828125 -6.640625 C 0.828125 -7.648438 0.785156 -8.460938 0.703125 -9.078125 C 0.617188 -9.691406 0.515625 -10.101562 0.390625 -10.3125 L 0.390625 -10.5 L 3.09375 -10.5 L 3.09375 -10.3125 C 2.957031 -10.101562 2.847656 -9.691406 2.765625 -9.078125 C 2.691406 -8.460938 2.65625 -7.648438 2.65625 -6.640625 L 2.65625 -3.703125 C 2.65625 -2.710938 2.90625 -1.914062 3.40625 -1.3125 C 3.90625 -0.707031 4.582031 -0.40625 5.4375 -0.40625 C 6 -0.40625 6.5 -0.539062 6.9375 -0.8125 C 7.375 -1.09375 7.710938 -1.476562 7.953125 -1.96875 C 8.203125 -2.457031 8.328125 -3.019531 8.328125 -3.65625 L 8.328125 -6.640625 C 8.328125 -7.648438 8.285156 -8.460938 8.203125 -9.078125 C 8.128906 -9.691406 8.023438 -10.101562 7.890625 -10.3125 L 7.890625 -10.5 L 9.109375 -10.5 L 9.109375 -10.3125 C 8.972656 -10.101562 8.863281 -9.691406 8.78125 -9.078125 C 8.695312 -8.460938 8.65625 -7.648438 8.65625 -6.640625 L 8.65625 -3.65625 C 8.65625 -2.488281 8.3125 -1.554688 7.625 -0.859375 C 6.945312 -0.160156 5.96875 0.1875 4.6875 0.1875 Z M 4.6875 0.1875 "/></g></g></g><g fill="#e3c026" fill-opacity="1"><g transform="translate(11.630654, 28.379113)"><g><path d="M 4.078125 0.1875 C 3.566406 0.1875 3.097656 0.0859375 2.671875 -0.109375 C 2.253906 -0.316406 1.921875 -0.628906 1.671875 -1.046875 C 1.421875 -1.472656 1.296875 -2.023438 1.296875 -2.703125 L 1.296875 -7.9375 L -0.1875 -7.9375 L -0.1875 -8.25 L 0.484375 -8.25 C 1.148438 -8.25 1.65625 -8.457031 2 -8.875 C 2.34375 -9.289062 2.566406 -9.8125 2.671875 -10.4375 L 2.84375 -10.4375 L 2.84375 -8.25 L 5.765625 -8.25 L 5.765625 -7.9375 L 2.859375 -7.9375 L 2.859375 -2.203125 C 2.859375 -1.566406 2.992188 -1.054688 3.265625 -0.671875 C 3.546875 -0.285156 3.898438 -0.09375 4.328125 -0.09375 C 4.710938 -0.09375 5.023438 -0.210938 5.265625 -0.453125 C 5.515625 -0.691406 5.640625 -1.007812 5.640625 -1.40625 C 5.640625 -1.75 5.546875 -2.019531 5.359375 -2.21875 C 5.179688 -2.414062 4.960938 -2.515625 4.703125 -2.515625 C 4.453125 -2.515625 4.25 -2.410156 4.09375 -2.203125 C 3.9375 -2.003906 3.882812 -1.738281 3.9375 -1.40625 L 3.828125 -1.40625 C 3.816406 -1.4375 3.785156 -1.503906 3.734375 -1.609375 C 3.691406 -1.722656 3.671875 -1.851562 3.671875 -2 C 3.671875 -2.375 3.785156 -2.671875 4.015625 -2.890625 C 4.253906 -3.117188 4.535156 -3.234375 4.859375 -3.234375 C 5.242188 -3.234375 5.59375 -3.097656 5.90625 -2.828125 C 6.21875 -2.566406 6.375 -2.179688 6.375 -1.671875 C 6.375 -1.109375 6.15625 -0.65625 5.71875 -0.3125 C 5.28125 0.0195312 4.734375 0.1875 4.078125 0.1875 Z M 4.078125 0.1875 "/></g></g></g><g fill="#e3c026" fill-opacity="1"><g transform="translate(18.312936, 28.379113)"><g><path d="M 0.5 0 L 0.5 -0.1875 C 0.769531 -0.625 0.90625 -1.832031 0.90625 -3.8125 L 0.90625 -7.765625 C 0.90625 -8.628906 0.859375 -9.242188 0.765625 -9.609375 C 0.671875 -9.972656 0.570312 -10.21875 0.46875 -10.34375 L 0.46875 -10.5 C 0.789062 -10.519531 1.117188 -10.578125 1.453125 -10.671875 C 1.796875 -10.765625 2.078125 -10.90625 2.296875 -11.09375 L 2.453125 -11.09375 L 2.453125 -6.578125 L 2.609375 -6.578125 C 2.835938 -7.148438 3.207031 -7.601562 3.71875 -7.9375 C 4.238281 -8.269531 4.828125 -8.4375 5.484375 -8.4375 C 6.515625 -8.4375 7.3125 -8.117188 7.875 -7.484375 C 8.4375 -6.859375 8.71875 -6.039062 8.71875 -5.03125 L 8.71875 -3.8125 C 8.71875 -2.820312 8.75 -2.019531 8.8125 -1.40625 C 8.882812 -0.800781 8.984375 -0.394531 9.109375 -0.1875 L 9.109375 0 L 6.75 0 L 6.75 -0.1875 C 6.875 -0.394531 6.96875 -0.800781 7.03125 -1.40625 C 7.101562 -2.019531 7.140625 -2.820312 7.140625 -3.8125 L 7.140625 -5.140625 C 7.140625 -5.910156 6.953125 -6.515625 6.578125 -6.953125 C 6.203125 -7.398438 5.644531 -7.625 4.90625 -7.625 C 4.46875 -7.625 4.0625 -7.507812 3.6875 -7.28125 C 3.320312 -7.0625 3.023438 -6.757812 2.796875 -6.375 C 2.566406 -6 2.453125 -5.578125 2.453125 -5.109375 L 2.453125 -3.8125 C 2.453125 -2.820312 2.488281 -2.019531 2.5625 -1.40625 C 2.632812 -0.800781 2.726562 -0.394531 2.84375 -0.1875 L 2.84375 0 Z M 0.5 0 "/></g></g></g><g fill="#e3c026" fill-opacity="1"><g transform="translate(27.856912, 28.379113)"><g><path d="M 4.09375 0.1875 C 2.894531 0.1875 1.960938 -0.015625 1.296875 -0.421875 C 0.640625 -0.835938 0.3125 -1.351562 0.3125 -1.96875 C 0.3125 -2.507812 0.492188 -2.9375 0.859375 -3.25 C 1.234375 -3.5625 1.695312 -3.71875 2.25 -3.71875 C 2.5625 -3.71875 2.835938 -3.65625 3.078125 -3.53125 C 3.328125 -3.40625 3.523438 -3.25 3.671875 -3.0625 C 3.828125 -2.875 3.90625 -2.664062 3.90625 -2.4375 C 3.90625 -2.363281 3.890625 -2.28125 3.859375 -2.1875 C 3.835938 -2.09375 3.8125 -2.019531 3.78125 -1.96875 L 3.59375 -1.96875 C 3.664062 -2.25 3.59375 -2.476562 3.375 -2.65625 C 3.164062 -2.84375 2.890625 -2.9375 2.546875 -2.9375 C 2.203125 -2.9375 1.921875 -2.820312 1.703125 -2.59375 C 1.484375 -2.363281 1.375 -2.066406 1.375 -1.703125 C 1.375 -1.242188 1.59375 -0.863281 2.03125 -0.5625 C 2.476562 -0.257812 3.082031 -0.109375 3.84375 -0.109375 C 4.25 -0.109375 4.640625 -0.179688 5.015625 -0.328125 C 5.390625 -0.484375 5.695312 -0.707031 5.9375 -1 C 6.175781 -1.289062 6.296875 -1.644531 6.296875 -2.0625 C 6.296875 -2.445312 6.195312 -2.765625 6 -3.015625 C 5.800781 -3.273438 5.535156 -3.488281 5.203125 -3.65625 C 4.867188 -3.820312 4.507812 -3.96875 4.125 -4.09375 C 3.738281 -4.21875 3.347656 -4.335938 2.953125 -4.453125 C 2.554688 -4.578125 2.191406 -4.710938 1.859375 -4.859375 C 1.523438 -5.015625 1.257812 -5.210938 1.0625 -5.453125 C 0.863281 -5.691406 0.765625 -5.988281 0.765625 -6.34375 C 0.765625 -6.738281 0.859375 -7.066406 1.046875 -7.328125 C 1.242188 -7.585938 1.503906 -7.796875 1.828125 -7.953125 C 2.148438 -8.117188 2.503906 -8.238281 2.890625 -8.3125 C 3.285156 -8.394531 3.675781 -8.4375 4.0625 -8.4375 C 4.71875 -8.4375 5.316406 -8.363281 5.859375 -8.21875 C 6.398438 -8.070312 6.84375 -7.910156 7.1875 -7.734375 L 7.046875 -6.453125 L 6.921875 -6.453125 C 6.796875 -6.742188 6.609375 -7.015625 6.359375 -7.265625 C 6.117188 -7.515625 5.832031 -7.710938 5.5 -7.859375 C 5.164062 -8.015625 4.796875 -8.09375 4.390625 -8.09375 C 3.648438 -8.09375 3.101562 -7.96875 2.75 -7.71875 C 2.40625 -7.46875 2.234375 -7.144531 2.234375 -6.75 C 2.234375 -6.476562 2.332031 -6.253906 2.53125 -6.078125 C 2.738281 -5.898438 3.007812 -5.742188 3.34375 -5.609375 C 3.6875 -5.472656 4.054688 -5.347656 4.453125 -5.234375 C 4.859375 -5.117188 5.257812 -4.988281 5.65625 -4.84375 C 6.0625 -4.695312 6.429688 -4.515625 6.765625 -4.296875 C 7.109375 -4.085938 7.378906 -3.828125 7.578125 -3.515625 C 7.785156 -3.210938 7.890625 -2.835938 7.890625 -2.390625 C 7.890625 -1.828125 7.707031 -1.351562 7.34375 -0.96875 C 6.988281 -0.582031 6.519531 -0.289062 5.9375 -0.09375 C 5.363281 0.09375 4.75 0.1875 4.09375 0.1875 Z M 4.09375 0.1875 "/></g></g></g><g fill="#e3c026" fill-opacity="1"><g transform="translate(36.037468, 28.379113)"><g><path d="M 3.375 0.1875 C 2.769531 0.1875 2.242188 0.0703125 1.796875 -0.15625 C 1.347656 -0.382812 1 -0.695312 0.75 -1.09375 C 0.507812 -1.488281 0.390625 -1.9375 0.390625 -2.4375 C 0.390625 -2.9375 0.507812 -3.378906 0.75 -3.765625 C 1 -4.160156 1.347656 -4.472656 1.796875 -4.703125 C 2.242188 -4.929688 2.769531 -5.046875 3.375 -5.046875 C 3.875 -5.046875 4.335938 -4.945312 4.765625 -4.75 C 5.191406 -4.550781 5.519531 -4.289062 5.75 -3.96875 L 5.875 -3.96875 L 5.53125 -5.96875 C 5.425781 -6.613281 5.195312 -7.128906 4.84375 -7.515625 C 4.5 -7.898438 4.023438 -8.09375 3.421875 -8.09375 C 2.941406 -8.09375 2.582031 -7.984375 2.34375 -7.765625 C 2.101562 -7.554688 1.984375 -7.289062 1.984375 -6.96875 C 1.984375 -6.6875 2.078125 -6.457031 2.265625 -6.28125 C 2.453125 -6.113281 2.675781 -6.03125 2.9375 -6.03125 C 3.25 -6.03125 3.5 -6.117188 3.6875 -6.296875 C 3.875 -6.472656 3.921875 -6.6875 3.828125 -6.9375 L 3.984375 -6.984375 C 4.035156 -6.929688 4.070312 -6.851562 4.09375 -6.75 C 4.125 -6.644531 4.140625 -6.554688 4.140625 -6.484375 C 4.140625 -6.203125 4.019531 -5.941406 3.78125 -5.703125 C 3.539062 -5.460938 3.203125 -5.34375 2.765625 -5.34375 C 2.304688 -5.34375 1.921875 -5.476562 1.609375 -5.75 C 1.304688 -6.03125 1.15625 -6.351562 1.15625 -6.71875 C 1.15625 -7.039062 1.265625 -7.332031 1.484375 -7.59375 C 1.710938 -7.851562 2.019531 -8.054688 2.40625 -8.203125 C 2.789062 -8.359375 3.222656 -8.4375 3.703125 -8.4375 C 4.710938 -8.4375 5.5 -8.160156 6.0625 -7.609375 C 6.632812 -7.054688 7 -6.332031 7.15625 -5.4375 L 7.734375 -2.0625 C 7.796875 -1.6875 7.898438 -1.375 8.046875 -1.125 C 8.191406 -0.882812 8.394531 -0.765625 8.65625 -0.765625 C 8.851562 -0.765625 9 -0.832031 9.09375 -0.96875 C 9.1875 -1.113281 9.253906 -1.28125 9.296875 -1.46875 L 9.453125 -1.46875 C 9.441406 -1.207031 9.382812 -0.945312 9.28125 -0.6875 C 9.1875 -0.4375 9.039062 -0.226562 8.84375 -0.0625 C 8.644531 0.101562 8.390625 0.1875 8.078125 0.1875 C 7.554688 0.1875 7.160156 0 6.890625 -0.375 C 6.617188 -0.75 6.4375 -1.1875 6.34375 -1.6875 L 6.1875 -1.6875 C 6.03125 -1.144531 5.695312 -0.695312 5.1875 -0.34375 C 4.675781 0.0078125 4.070312 0.1875 3.375 0.1875 Z M 4.015625 -0.546875 C 4.421875 -0.546875 4.773438 -0.632812 5.078125 -0.8125 C 5.390625 -0.988281 5.632812 -1.222656 5.8125 -1.515625 C 6 -1.816406 6.09375 -2.144531 6.09375 -2.5 C 6.09375 -2.875 6 -3.207031 5.8125 -3.5 C 5.632812 -3.789062 5.390625 -4.023438 5.078125 -4.203125 C 4.773438 -4.390625 4.421875 -4.484375 4.015625 -4.484375 C 3.378906 -4.484375 2.875 -4.296875 2.5 -3.921875 C 2.125 -3.554688 1.9375 -3.082031 1.9375 -2.5 C 1.9375 -1.9375 2.125 -1.46875 2.5 -1.09375 C 2.875 -0.726562 3.378906 -0.546875 4.015625 -0.546875 Z M 4.015625 -0.546875 "/></g></g></g><g fill="#e3c026" fill-opacity="1"><g transform="translate(45.326744, 28.379113)"><g><path d="M 3.078125 0 L 1.65625 -4.6875 C 1.5 -5.15625 1.335938 -5.625 1.171875 -6.09375 C 1.015625 -6.5625 0.847656 -6.972656 0.671875 -7.328125 C 0.503906 -7.679688 0.335938 -7.925781 0.171875 -8.0625 L 0.171875 -8.25 L 2.796875 -8.25 L 2.796875 -8.0625 C 2.734375 -7.84375 2.742188 -7.472656 2.828125 -6.953125 C 2.921875 -6.441406 3.113281 -5.6875 3.40625 -4.6875 L 4.359375 -1.5 L 4.515625 -1.5 L 5.546875 -4.875 C 5.796875 -5.738281 5.953125 -6.40625 6.015625 -6.875 C 6.078125 -7.351562 6.0625 -7.75 5.96875 -8.0625 L 5.96875 -8.25 L 8.3125 -8.25 L 8.3125 -8.0625 C 8.207031 -7.75 8.175781 -7.351562 8.21875 -6.875 C 8.257812 -6.40625 8.40625 -5.738281 8.65625 -4.875 L 9.6875 -1.5 L 9.84375 -1.5 L 10.875 -4.6875 C 11.195312 -5.675781 11.414062 -6.429688 11.53125 -6.953125 C 11.644531 -7.472656 11.671875 -7.84375 11.609375 -8.0625 L 11.609375 -8.25 L 12.875 -8.25 L 12.875 -8.0625 C 12.664062 -7.851562 12.410156 -7.488281 12.109375 -6.96875 C 11.816406 -6.445312 11.507812 -5.6875 11.1875 -4.6875 L 9.65625 0 L 8.328125 0 L 6.46875 -6.390625 L 6.3125 -6.390625 L 4.328125 0 Z M 3.078125 0 "/></g></g></g></svg>