<svg xmlns="http://www.w3.org/2000/svg" xmlns:xlink="http://www.w3.org/1999/xlink" width="81" zoomAndPan="magnify" viewBox="0 0 60.75 33.749998" height="45" preserveAspectRatio="xMidYMid meet" version="1.0"><defs><g/></defs><g fill="#ffffff" fill-opacity="1"><g transform="translate(59.39936, 31.824732)"><g><path d="M 0.03125 -2.359375 L 0 -2.21875 L 0 -1.875 L 0.015625 -1.65625 L 0 -1.375 L 0 -1.234375 L 0.015625 -1.015625 L -0.015625 -0.8125 L 0 -0.6875 L 0 -0.546875 L -0.0625 -0.40625 L -0.25 -0.34375 L -0.90625 -0.359375 L -1.03125 -0.4375 L -1.171875 -0.90625 L -1.375 -0.984375 L -3.53125 -0.953125 L -3.71875 -0.890625 L -3.8125 -0.765625 L -3.8125 -0.625 L -3.890625 -0.46875 L -4.03125 -0.390625 L -4.15625 -0.40625 L -4.6875 -0.375 L -4.84375 -0.453125 L -4.921875 -0.59375 L -4.921875 -0.75 L -4.90625 -0.890625 L -4.90625 -1.46875 L -4.921875 -1.609375 L -4.921875 -2.578125 L -4.84375 -2.703125 L -4.703125 -2.796875 L -4 -2.78125 L -3.890625 -2.71875 L -3.84375 -2.5625 L -3.8125 -2.421875 L -3.75 -2.265625 L -3.59375 -2.21875 L -2.875 -2.1875 L -2.375 -2.21875 L -2.21875 -2.203125 L -1.453125 -2.21875 L -1.3125 -2.1875 L -1.15625 -2.28125 L -1.09375 -2.453125 L -1.09375 -2.59375 L -1.015625 -2.75 L -0.890625 -2.828125 L -0.1875 -2.828125 L -0.0625 -2.765625 L 0.015625 -2.640625 Z M 0.03125 -2.359375 "/></g></g></g><g fill="#ffffff" fill-opacity="1"><g transform="translate(59.39936, 28.629016)"><g><path d="M -0.109375 -4.140625 L -0.203125 -4.0625 L -0.3125 -3.96875 L -0.40625 -3.859375 L -0.515625 -3.765625 L -1.1875 -3.09375 L -1.28125 -2.96875 L -2.265625 -1.96875 L -2.296875 -1.875 L -2.203125 -1.8125 L -2.0625 -1.828125 L -0.34375 -1.8125 L -0.203125 -1.828125 L -0.0625 -1.765625 L 0.015625 -1.625 L 0 -1.46875 L 0.015625 -1.328125 L 0 -0.96875 L 0.015625 -0.734375 L -0.0625 -0.59375 L -0.21875 -0.53125 L -0.34375 -0.53125 L -0.484375 -0.515625 L -0.765625 -0.53125 L -0.90625 -0.515625 L -1.1875 -0.53125 L -1.328125 -0.5 L -1.46875 -0.5 L -1.625 -0.515625 L -1.75 -0.515625 L -1.890625 -0.53125 L -2.890625 -0.5 L -3.03125 -0.53125 L -3.1875 -0.515625 L -3.3125 -0.53125 L -3.59375 -0.515625 L -3.734375 -0.53125 L -4.71875 -0.515625 L -4.859375 -0.609375 L -4.9375 -0.765625 L -4.890625 -0.96875 L -4.703125 -1.25 L -4.3125 -1.625 L -4.1875 -1.71875 L -4.109375 -1.828125 L -4 -1.90625 L -3.90625 -2.03125 L -3.796875 -2.109375 L -3.625 -2.328125 L -3.46875 -2.484375 L -3.375 -2.5625 L -3.28125 -2.671875 L -3.03125 -2.921875 L -2.953125 -3.015625 L -2.625 -3.328125 L -2.59375 -3.4375 L -2.71875 -3.46875 L -3 -3.453125 L -3.140625 -3.484375 L -3.28125 -3.484375 L -3.421875 -3.453125 L -4.703125 -3.46875 L -4.84375 -3.53125 L -4.921875 -3.703125 L -4.921875 -3.96875 L -4.90625 -4.125 L -4.921875 -4.28125 L -4.921875 -4.40625 L -4.90625 -4.546875 L -4.84375 -4.703125 L -4.703125 -4.78125 L -4.140625 -4.78125 L -4 -4.765625 L -3.71875 -4.765625 L -3.578125 -4.78125 L -3.296875 -4.75 L -2.453125 -4.78125 L -2.296875 -4.765625 L -2.109375 -4.796875 L -0.1875 -4.765625 L -0.046875 -4.703125 L 0.03125 -4.53125 L -0.015625 -4.359375 Z M -0.109375 -4.140625 "/></g></g></g><g fill="#ffffff" fill-opacity="1"><g transform="translate(59.39936, 23.321597)"><g><path d="M 0.0625 -2.03125 L 0.03125 -1.75 L -0.015625 -1.609375 L -0.03125 -1.453125 L -0.265625 -0.953125 L -0.34375 -0.828125 L -0.546875 -0.625 L -0.765625 -0.453125 L -1.046875 -0.34375 L -1.171875 -0.3125 L -1.328125 -0.296875 L -1.46875 -0.34375 L -1.546875 -0.484375 L -1.53125 -0.625 L -1.546875 -0.765625 L -1.53125 -1.296875 L -1.46875 -1.4375 L -1.328125 -1.546875 L -1.234375 -1.65625 L -1.15625 -1.78125 L -1.109375 -1.890625 L -1.0625 -2.046875 L -1.046875 -2.25 L -1.0625 -2.453125 L -1.140625 -2.71875 L -1.203125 -2.828125 L -1.296875 -2.9375 L -1.484375 -2.984375 L -1.671875 -2.953125 L -1.75 -2.84375 L -1.859375 -2.59375 L -1.859375 -2.453125 L -1.890625 -2.328125 L -1.921875 -1.75 L -1.984375 -1.5 L -2.109375 -1.09375 L -2.265625 -0.84375 L -2.453125 -0.65625 L -2.671875 -0.484375 L -2.921875 -0.390625 L -3.125 -0.34375 L -3.59375 -0.328125 L -4 -0.421875 L -4.109375 -0.5 L -4.234375 -0.546875 L -4.328125 -0.640625 L -4.453125 -0.71875 L -4.53125 -0.84375 L -4.625 -0.9375 L -4.703125 -1.078125 L -4.75 -1.1875 L -4.828125 -1.3125 L -4.875 -1.4375 L -4.984375 -1.984375 L -4.984375 -2.390625 L -4.953125 -2.53125 L -4.921875 -2.8125 L -4.78125 -3.203125 L -4.46875 -3.65625 L -4.25 -3.8125 L -4.140625 -3.90625 L -3.890625 -4.015625 L -3.609375 -4.078125 L -3.484375 -4 L -3.390625 -3.875 L -3.40625 -3.734375 L -3.390625 -3.609375 L -3.40625 -3.15625 L -3.484375 -2.9375 L -3.71875 -2.703125 L -3.8125 -2.59375 L -3.859375 -2.4375 L -3.859375 -1.984375 L -3.828125 -1.859375 L -3.78125 -1.765625 L -3.6875 -1.640625 L -3.59375 -1.5625 L -3.40625 -1.546875 L -3.21875 -1.546875 L -3.109375 -1.671875 L -3.046875 -1.765625 L -2.953125 -2.0625 L -2.859375 -2.78125 L -2.71875 -3.359375 L -2.546875 -3.71875 L -2.453125 -3.84375 L -2.234375 -4.015625 L -1.96875 -4.15625 L -1.6875 -4.21875 L -1.265625 -4.203125 L -1.125 -4.1875 L -0.984375 -4.140625 L -0.859375 -4.078125 L -0.640625 -3.9375 L -0.421875 -3.75 L -0.265625 -3.515625 L -0.0625 -3.15625 L 0.0625 -2.46875 L 0.078125 -2.25 Z M 0.0625 -2.03125 "/></g></g></g><g fill="#ffffff" fill-opacity="1"><g transform="translate(59.39936, 18.830707)"><g><path d="M -0.21875 -0.515625 L -0.34375 -0.515625 L -0.484375 -0.53125 L -0.625 -0.5 L -0.765625 -0.546875 L -1.203125 -0.515625 L -1.484375 -0.546875 L -1.609375 -0.515625 L -1.90625 -0.515625 L -2.046875 -0.53125 L -2.25 -0.515625 L -2.453125 -0.546875 L -2.734375 -0.515625 L -2.890625 -0.53125 L -3.015625 -0.515625 L -3.15625 -0.53125 L -3.875 -0.53125 L -4.015625 -0.515625 L -4.15625 -0.515625 L -4.28125 -0.53125 L -4.5625 -0.53125 L -4.71875 -0.546875 L -4.84375 -0.625 L -4.921875 -0.8125 L -4.90625 -2.90625 L -4.875 -3.03125 L -4.828125 -3.171875 L -4.796875 -3.328125 L -4.65625 -3.578125 L -4.515625 -3.796875 L -4.421875 -3.90625 L -4.3125 -3.984375 L -4.21875 -4.078125 L -4.09375 -4.171875 L -3.84375 -4.3125 L -3.296875 -4.4375 L -2.875 -4.421875 L -2.75 -4.421875 L -2.453125 -4.359375 L -2.203125 -4.234375 L -1.875 -4.015625 L -1.671875 -3.796875 L -1.578125 -3.6875 L -1.4375 -3.453125 L -1.3125 -3.046875 L -1.265625 -2.75 L -1.25 -2.390625 L -1.265625 -2.171875 L -1.25 -2.03125 L -1.1875 -1.828125 L -1.0625 -1.78125 L -0.90625 -1.78125 L -0.765625 -1.796875 L -0.625 -1.78125 L -0.5 -1.796875 L -0.21875 -1.78125 L -0.0625 -1.71875 L 0 -1.578125 L 0 -0.859375 L -0.015625 -0.71875 L -0.0625 -0.578125 Z M -2.390625 -2.015625 L -2.390625 -2.171875 L -2.421875 -2.75 L -2.484375 -2.859375 L -2.5625 -2.96875 L -2.75 -3.140625 L -3.078125 -3.21875 L -3.40625 -3.15625 L -3.53125 -3.078125 L -3.640625 -2.96875 L -3.71875 -2.859375 L -3.78125 -2.734375 L -3.796875 -2.171875 L -3.796875 -2 L -3.734375 -1.859375 L -3.578125 -1.78125 L -2.59375 -1.796875 L -2.453125 -1.875 Z M -2.390625 -2.015625 "/></g></g></g><g fill="#ffffff" fill-opacity="1"><g transform="translate(59.39936, 14.199034)"><g><path d="M -0.203125 -0.34375 L -0.875 -0.34375 L -1.015625 -0.4375 L -1.15625 -0.90625 L -1.3125 -0.96875 L -1.59375 -0.984375 L -1.890625 -0.953125 L -2.03125 -0.984375 L -2.3125 -0.96875 L -2.453125 -0.984375 L -2.734375 -0.984375 L -2.890625 -0.96875 L -3.015625 -0.953125 L -3.609375 -0.984375 L -3.734375 -0.890625 L -3.890625 -0.453125 L -4.015625 -0.390625 L -4.15625 -0.390625 L -4.296875 -0.375 L -4.453125 -0.375 L -4.5625 -0.390625 L -4.703125 -0.390625 L -4.84375 -0.46875 L -4.921875 -0.625 L -4.90625 -0.890625 L -4.921875 -1.03125 L -4.90625 -1.453125 L -4.921875 -1.609375 L -4.921875 -2.5 L -4.84375 -2.734375 L -4.703125 -2.78125 L -4.5625 -2.796875 L -4.4375 -2.78125 L -4.03125 -2.78125 L -3.890625 -2.703125 L -3.8125 -2.578125 L -3.8125 -2.421875 L -3.734375 -2.28125 L -3.609375 -2.203125 L -3.3125 -2.203125 L -3.15625 -2.21875 L -3.015625 -2.203125 L -2.890625 -2.21875 L -2.671875 -2.203125 L -2.453125 -2.21875 L -2.171875 -2.1875 L -1.890625 -2.21875 L -1.3125 -2.203125 L -1.171875 -2.28125 L -1.015625 -2.75 L -0.90625 -2.859375 L -0.46875 -2.828125 L -0.34375 -2.84375 L -0.1875 -2.84375 L -0.0625 -2.765625 L 0 -2.640625 L 0 -0.546875 L -0.0625 -0.40625 Z M -0.203125 -0.34375 "/></g></g></g><g fill="#ffffff" fill-opacity="1"><g transform="translate(59.39936, 11.003318)"><g><path d="M -0.21875 -0.546875 L -0.765625 -0.515625 L -0.921875 -0.53125 L -1.328125 -0.5 L -1.609375 -0.53125 L -1.765625 -0.5 L -2.03125 -0.515625 L -2.1875 -0.53125 L -2.53125 -0.53125 L -2.734375 -0.5 L -4.703125 -0.53125 L -4.859375 -0.578125 L -4.921875 -0.71875 L -4.921875 -0.875 L -4.9375 -1 L -4.90625 -1.296875 L -4.921875 -1.421875 L -4.921875 -2.796875 L -4.796875 -3.375 L -4.671875 -3.625 L -4.40625 -3.984375 L -4.296875 -4.046875 L -4.1875 -4.140625 L -3.796875 -4.328125 L -3.65625 -4.359375 L -3.53125 -4.390625 L -3.390625 -4.421875 L -2.84375 -4.421875 L -2.578125 -4.34375 L -2.328125 -4.21875 L -2.1875 -4.15625 L -2.078125 -4.078125 L -1.890625 -3.875 L -1.734375 -3.796875 L -1.5625 -3.828125 L -1.203125 -4.03125 L -1.09375 -4.125 L -0.84375 -4.28125 L -0.71875 -4.34375 L -0.375 -4.5625 L -0.203125 -4.65625 L -0.046875 -4.640625 L -0.015625 -4.484375 L 0 -4.328125 L 0 -4.046875 L -0.015625 -3.90625 L 0 -3.75 L -0.015625 -3.5 L -0.0625 -3.328125 L -0.1875 -3.1875 L -0.296875 -3.09375 L -0.421875 -3.03125 L -0.546875 -2.953125 L -0.90625 -2.75 L -1.03125 -2.703125 L -1.28125 -2.515625 L -1.40625 -2.40625 L -1.453125 -2.234375 L -1.453125 -1.96875 L -1.375 -1.828125 L -1.234375 -1.765625 L -0.796875 -1.78125 L -0.5 -1.765625 L -0.34375 -1.796875 L -0.203125 -1.78125 L -0.0625 -1.734375 L 0 -1.515625 L 0 -1.296875 L -0.015625 -1.15625 L 0 -0.859375 L 0 -0.734375 L -0.0625 -0.59375 Z M -2.59375 -1.96875 L -2.59375 -2.125 L -2.5625 -2.265625 L -2.609375 -2.8125 L -2.671875 -2.921875 L -2.75 -3.015625 L -2.875 -3.09375 L -3.015625 -3.140625 L -3.203125 -3.15625 L -3.40625 -3.15625 L -3.625 -3.03125 L -3.75 -2.8125 L -3.796875 -2.484375 L -3.796875 -1.984375 L -3.71875 -1.84375 L -3.578125 -1.765625 L -2.796875 -1.78125 L -2.65625 -1.859375 Z M -2.59375 -1.96875 "/></g></g></g><g fill="#ffffff" fill-opacity="1"><g transform="translate(59.39936, 6.125282)"><g><path d="M -0.203125 -0.5 L -0.34375 -0.53125 L -0.484375 -0.546875 L -0.765625 -0.53125 L -0.90625 -0.53125 L -1.0625 -0.515625 L -1.1875 -0.53125 L -1.328125 -0.53125 L -1.46875 -0.546875 L -1.625 -0.515625 L -1.90625 -0.53125 L -2.171875 -0.515625 L -2.328125 -0.53125 L -3.578125 -0.53125 L -3.71875 -0.515625 L -3.859375 -0.53125 L -4.21875 -0.5 L -4.421875 -0.53125 L -4.703125 -0.515625 L -4.859375 -0.59375 L -4.90625 -0.796875 L -4.921875 -1.71875 L -4.921875 -2.109375 L -4.90625 -2.25 L -4.921875 -2.5625 L -4.90625 -2.703125 L -4.921875 -2.828125 L -4.90625 -3.390625 L -4.84375 -3.546875 L -4.703125 -3.609375 L -4.421875 -3.578125 L -4.28125 -3.609375 L -4 -3.625 L -3.859375 -3.546875 L -3.796875 -3.390625 L -3.78125 -2.046875 L -3.71875 -1.828125 L -3.515625 -1.75 L -3.296875 -1.765625 L -3.171875 -1.859375 L -3.09375 -1.96875 L -3.09375 -3.265625 L -3.015625 -3.375 L -2.875 -3.4375 L -2.734375 -3.453125 L -2.1875 -3.4375 L -2.046875 -3.375 L -1.96875 -3.234375 L -1.96875 -3.109375 L -1.984375 -2.953125 L -1.96875 -2.765625 L -1.984375 -2.390625 L -1.96875 -2.25 L -1.96875 -1.984375 L -1.890625 -1.859375 L -1.75 -1.796875 L -1.40625 -1.78125 L -1.1875 -1.84375 L -1.109375 -2 L -1.125 -2.15625 L -1.109375 -2.3125 L -1.125 -2.4375 L -1.109375 -3.375 L -1.046875 -3.578125 L -0.90625 -3.671875 L -0.765625 -3.65625 L -0.203125 -3.65625 L -0.0625 -3.578125 L 0 -3.4375 L 0.015625 -3.296875 L 0 -2.875 L 0.015625 -2.453125 L 0 -2.3125 L 0 -0.734375 L -0.0625 -0.59375 Z M -0.203125 -0.5 "/></g></g></g><g fill="#ffffff" fill-opacity="1"><g transform="translate(59.39936, 2.083269)"><g/></g></g><g fill="#e3c026" fill-opacity="1"><g transform="translate(1.79418, 15.625812)"><g><path d="M 0.21875 -0.984375 C 0.21875 -1.285156 0.238281 -1.550781 0.28125 -1.78125 C 0.332031 -2.019531 0.394531 -2.257812 0.46875 -2.5 C 0.539062 -2.738281 0.617188 -3.003906 0.703125 -3.296875 C 0.785156 -3.597656 0.863281 -3.953125 0.9375 -4.359375 C 1.019531 -4.765625 1.082031 -5.242188 1.125 -5.796875 C 1.175781 -6.359375 1.203125 -7.03125 1.203125 -7.8125 C 1.203125 -8.582031 1.175781 -9.25 1.125 -9.8125 C 1.082031 -10.375 1.019531 -10.851562 0.9375 -11.25 C 0.863281 -11.65625 0.785156 -12.003906 0.703125 -12.296875 C 0.617188 -12.597656 0.539062 -12.867188 0.46875 -13.109375 C 0.394531 -13.347656 0.332031 -13.585938 0.28125 -13.828125 C 0.238281 -14.066406 0.21875 -14.332031 0.21875 -14.625 C 0.21875 -14.894531 0.28125 -15.097656 0.40625 -15.234375 C 0.53125 -15.367188 0.6875 -15.460938 0.875 -15.515625 C 1.0625 -15.578125 1.242188 -15.609375 1.421875 -15.609375 C 1.597656 -15.609375 1.742188 -15.609375 1.859375 -15.609375 L 4.015625 -15.609375 C 4.160156 -15.609375 4.316406 -15.59375 4.484375 -15.5625 C 4.648438 -15.539062 4.800781 -15.488281 4.9375 -15.40625 C 5.082031 -15.332031 5.191406 -15.210938 5.265625 -15.046875 L 7.421875 -10.328125 C 7.515625 -10.117188 7.625 -10.015625 7.75 -10.015625 C 7.863281 -10.015625 7.96875 -10.117188 8.0625 -10.328125 C 8.28125 -10.773438 8.5 -11.257812 8.71875 -11.78125 C 8.9375 -12.300781 9.160156 -12.832031 9.390625 -13.375 C 9.628906 -13.914062 9.882812 -14.4375 10.15625 -14.9375 C 10.207031 -15.132812 10.304688 -15.28125 10.453125 -15.375 C 10.597656 -15.46875 10.757812 -15.53125 10.9375 -15.5625 C 11.113281 -15.59375 11.273438 -15.609375 11.421875 -15.609375 L 14.546875 -15.609375 C 14.660156 -15.609375 14.804688 -15.609375 14.984375 -15.609375 C 15.171875 -15.609375 15.359375 -15.578125 15.546875 -15.515625 C 15.734375 -15.460938 15.890625 -15.367188 16.015625 -15.234375 C 16.140625 -15.097656 16.203125 -14.894531 16.203125 -14.625 C 16.203125 -14.332031 16.175781 -14.066406 16.125 -13.828125 C 16.082031 -13.585938 16.019531 -13.347656 15.9375 -13.109375 C 15.863281 -12.867188 15.785156 -12.597656 15.703125 -12.296875 C 15.617188 -12.003906 15.539062 -11.65625 15.46875 -11.25 C 15.394531 -10.851562 15.332031 -10.375 15.28125 -9.8125 C 15.238281 -9.25 15.21875 -8.582031 15.21875 -7.8125 C 15.21875 -7.03125 15.238281 -6.359375 15.28125 -5.796875 C 15.332031 -5.242188 15.394531 -4.765625 15.46875 -4.359375 C 15.539062 -3.953125 15.617188 -3.597656 15.703125 -3.296875 C 15.785156 -3.003906 15.863281 -2.738281 15.9375 -2.5 C 16.019531 -2.257812 16.082031 -2.019531 16.125 -1.78125 C 16.175781 -1.550781 16.203125 -1.285156 16.203125 -0.984375 C 16.203125 -0.710938 16.140625 -0.507812 16.015625 -0.375 C 15.890625 -0.238281 15.734375 -0.144531 15.546875 -0.09375 C 15.359375 -0.0390625 15.171875 -0.0078125 14.984375 0 C 14.804688 0 14.660156 0 14.546875 0 L 11.75 0 C 11.570312 0 11.382812 -0.00390625 11.1875 -0.015625 C 11 -0.0351562 10.820312 -0.0703125 10.65625 -0.125 C 10.488281 -0.1875 10.351562 -0.285156 10.25 -0.421875 C 10.15625 -0.554688 10.109375 -0.742188 10.109375 -0.984375 C 10.109375 -1.285156 10.125 -1.550781 10.15625 -1.78125 C 10.195312 -2.019531 10.242188 -2.257812 10.296875 -2.5 C 10.359375 -2.738281 10.421875 -3.003906 10.484375 -3.296875 C 10.546875 -3.597656 10.601562 -3.953125 10.65625 -4.359375 C 10.71875 -4.765625 10.765625 -5.242188 10.796875 -5.796875 C 10.835938 -6.359375 10.859375 -7.03125 10.859375 -7.8125 L 7.953125 -2.671875 C 7.910156 -2.554688 7.835938 -2.46875 7.734375 -2.40625 C 7.640625 -2.351562 7.539062 -2.328125 7.4375 -2.328125 C 7.21875 -2.328125 7.054688 -2.4375 6.953125 -2.65625 L 4.34375 -7.59375 C 4.351562 -6.851562 4.378906 -6.210938 4.421875 -5.671875 C 4.472656 -5.140625 4.535156 -4.675781 4.609375 -4.28125 C 4.691406 -3.894531 4.773438 -3.554688 4.859375 -3.265625 C 4.941406 -2.972656 5.015625 -2.707031 5.078125 -2.46875 C 5.148438 -2.238281 5.207031 -2.003906 5.25 -1.765625 C 5.300781 -1.535156 5.328125 -1.273438 5.328125 -0.984375 C 5.328125 -0.742188 5.273438 -0.554688 5.171875 -0.421875 C 5.078125 -0.285156 4.945312 -0.1875 4.78125 -0.125 C 4.613281 -0.0703125 4.429688 -0.0351562 4.234375 -0.015625 C 4.046875 -0.00390625 3.863281 0 3.6875 0 L 1.859375 0 C 1.742188 0 1.597656 0 1.421875 0 C 1.242188 -0.0078125 1.0625 -0.0390625 0.875 -0.09375 C 0.6875 -0.144531 0.53125 -0.238281 0.40625 -0.375 C 0.28125 -0.507812 0.21875 -0.710938 0.21875 -0.984375 Z M 0.21875 -0.984375 "/></g></g></g><g fill="#e3c026" fill-opacity="1"><g transform="translate(18.217324, 15.625812)"><g><path d="M 0.265625 -5.421875 C 0.265625 -6.171875 0.347656 -6.832031 0.515625 -7.40625 C 0.691406 -7.976562 0.921875 -8.46875 1.203125 -8.875 C 1.492188 -9.289062 1.816406 -9.632812 2.171875 -9.90625 C 2.535156 -10.175781 2.90625 -10.390625 3.28125 -10.546875 C 3.65625 -10.710938 4.015625 -10.828125 4.359375 -10.890625 C 4.703125 -10.960938 5.003906 -11 5.265625 -11 C 5.734375 -11.007812 6.109375 -11 6.390625 -10.96875 C 6.671875 -10.945312 6.898438 -10.921875 7.078125 -10.890625 C 7.265625 -10.859375 7.453125 -10.84375 7.640625 -10.84375 C 8.015625 -10.84375 8.316406 -10.859375 8.546875 -10.890625 C 8.773438 -10.921875 8.972656 -10.945312 9.140625 -10.96875 C 9.316406 -10.988281 9.488281 -11 9.65625 -11 C 9.769531 -11 9.90625 -10.984375 10.0625 -10.953125 C 10.21875 -10.929688 10.367188 -10.875 10.515625 -10.78125 C 10.671875 -10.695312 10.796875 -10.578125 10.890625 -10.421875 C 10.992188 -10.265625 11.046875 -10.054688 11.046875 -9.796875 C 11.046875 -9.535156 11.007812 -9.269531 10.9375 -9 C 10.863281 -8.726562 10.78125 -8.425781 10.6875 -8.09375 C 10.59375 -7.757812 10.503906 -7.375 10.421875 -6.9375 C 10.347656 -6.507812 10.3125 -6.003906 10.3125 -5.421875 C 10.3125 -4.921875 10.335938 -4.492188 10.390625 -4.140625 C 10.441406 -3.796875 10.507812 -3.492188 10.59375 -3.234375 C 10.675781 -2.984375 10.757812 -2.757812 10.84375 -2.5625 C 10.925781 -2.375 10.992188 -2.191406 11.046875 -2.015625 C 11.109375 -1.835938 11.140625 -1.65625 11.140625 -1.46875 C 11.140625 -1.144531 11.015625 -0.859375 10.765625 -0.609375 C 10.523438 -0.367188 10.195312 -0.179688 9.78125 -0.046875 C 9.363281 0.0859375 8.898438 0.15625 8.390625 0.15625 C 8.171875 0.15625 8 0.125 7.875 0.0625 C 7.75 0 7.644531 -0.0703125 7.5625 -0.15625 C 7.488281 -0.238281 7.410156 -0.3125 7.328125 -0.375 C 7.242188 -0.445312 7.128906 -0.484375 6.984375 -0.484375 C 6.828125 -0.484375 6.6875 -0.445312 6.5625 -0.375 C 6.4375 -0.3125 6.296875 -0.238281 6.140625 -0.15625 C 5.984375 -0.0703125 5.789062 0 5.5625 0.0625 C 5.332031 0.125 5.03125 0.15625 4.65625 0.15625 C 4.050781 0.15625 3.484375 0.0234375 2.953125 -0.234375 C 2.421875 -0.503906 1.953125 -0.882812 1.546875 -1.375 C 1.148438 -1.863281 0.835938 -2.453125 0.609375 -3.140625 C 0.378906 -3.828125 0.265625 -4.585938 0.265625 -5.421875 Z M 5.359375 -8.140625 C 5.066406 -8.140625 4.832031 -7.890625 4.65625 -7.390625 C 4.476562 -6.890625 4.390625 -6.234375 4.390625 -5.421875 C 4.390625 -4.609375 4.476562 -3.953125 4.65625 -3.453125 C 4.832031 -2.960938 5.066406 -2.71875 5.359375 -2.71875 C 5.648438 -2.71875 5.882812 -2.960938 6.0625 -3.453125 C 6.238281 -3.953125 6.328125 -4.609375 6.328125 -5.421875 C 6.328125 -6.234375 6.238281 -6.890625 6.0625 -7.390625 C 5.882812 -7.890625 5.648438 -8.140625 5.359375 -8.140625 Z M 5.359375 -8.140625 "/></g></g></g><g fill="#e3c026" fill-opacity="1"><g transform="translate(29.455353, 15.625812)"><g><path d="M 0.109375 -9.3125 C 0.109375 -9.5625 0.207031 -9.757812 0.40625 -9.90625 C 0.613281 -10.050781 0.867188 -10.164062 1.171875 -10.25 C 1.484375 -10.34375 1.804688 -10.429688 2.140625 -10.515625 C 2.265625 -10.554688 2.425781 -10.601562 2.625 -10.65625 C 2.820312 -10.707031 3.023438 -10.757812 3.234375 -10.8125 C 3.441406 -10.863281 3.625 -10.90625 3.78125 -10.9375 C 3.945312 -10.976562 4.066406 -11 4.140625 -11 C 4.347656 -11 4.539062 -10.921875 4.71875 -10.765625 C 4.90625 -10.617188 5.054688 -10.332031 5.171875 -9.90625 C 5.179688 -9.851562 5.203125 -9.804688 5.234375 -9.765625 C 5.273438 -9.734375 5.332031 -9.71875 5.40625 -9.71875 C 5.46875 -9.71875 5.582031 -9.78125 5.75 -9.90625 C 5.925781 -10.039062 6.148438 -10.191406 6.421875 -10.359375 C 6.703125 -10.523438 7.03125 -10.671875 7.40625 -10.796875 C 7.78125 -10.929688 8.207031 -11 8.6875 -11 C 9.34375 -11 9.875 -10.851562 10.28125 -10.5625 C 10.6875 -10.269531 10.984375 -9.867188 11.171875 -9.359375 C 11.367188 -8.847656 11.46875 -8.257812 11.46875 -7.59375 L 11.46875 -5.421875 C 11.46875 -4.921875 11.515625 -4.460938 11.609375 -4.046875 C 11.703125 -3.628906 11.816406 -3.238281 11.953125 -2.875 C 12.085938 -2.519531 12.203125 -2.1875 12.296875 -1.875 C 12.398438 -1.5625 12.453125 -1.257812 12.453125 -0.96875 C 12.453125 -0.707031 12.382812 -0.507812 12.25 -0.375 C 12.125 -0.238281 11.96875 -0.144531 11.78125 -0.09375 C 11.601562 -0.0390625 11.421875 -0.0078125 11.234375 0 C 11.054688 0 10.910156 0 10.796875 0 L 8.765625 0 C 8.671875 0 8.539062 0 8.375 0 C 8.21875 0 8.046875 -0.0078125 7.859375 -0.03125 C 7.671875 -0.0625 7.488281 -0.109375 7.3125 -0.171875 C 7.144531 -0.234375 7.003906 -0.328125 6.890625 -0.453125 C 6.785156 -0.585938 6.734375 -0.757812 6.734375 -0.96875 C 6.734375 -1.445312 6.785156 -1.929688 6.890625 -2.421875 C 6.992188 -2.910156 7.097656 -3.40625 7.203125 -3.90625 C 7.304688 -4.40625 7.351562 -4.910156 7.34375 -5.421875 C 7.332031 -5.648438 7.3125 -5.882812 7.28125 -6.125 C 7.257812 -6.375 7.210938 -6.609375 7.140625 -6.828125 C 7.066406 -7.054688 6.957031 -7.238281 6.8125 -7.375 C 6.675781 -7.519531 6.503906 -7.59375 6.296875 -7.59375 C 6.054688 -7.59375 5.867188 -7.519531 5.734375 -7.375 C 5.597656 -7.238281 5.492188 -7.054688 5.421875 -6.828125 C 5.359375 -6.609375 5.316406 -6.375 5.296875 -6.125 C 5.285156 -5.875 5.28125 -5.640625 5.28125 -5.421875 C 5.28125 -5.003906 5.328125 -4.59375 5.421875 -4.1875 C 5.523438 -3.78125 5.640625 -3.390625 5.765625 -3.015625 C 5.898438 -2.640625 6.019531 -2.28125 6.125 -1.9375 C 6.226562 -1.59375 6.28125 -1.269531 6.28125 -0.96875 C 6.28125 -0.757812 6.222656 -0.585938 6.109375 -0.453125 C 6.003906 -0.328125 5.863281 -0.234375 5.6875 -0.171875 C 5.519531 -0.109375 5.34375 -0.0625 5.15625 -0.03125 C 4.96875 -0.0078125 4.789062 0 4.625 0 C 4.457031 0 4.328125 0 4.234375 0 L 1.828125 0 C 1.710938 0 1.5625 0 1.375 0 C 1.195312 -0.0078125 1.015625 -0.0390625 0.828125 -0.09375 C 0.648438 -0.144531 0.5 -0.238281 0.375 -0.375 C 0.25 -0.507812 0.1875 -0.707031 0.1875 -0.96875 C 0.1875 -1.257812 0.234375 -1.5625 0.328125 -1.875 C 0.429688 -2.1875 0.546875 -2.519531 0.671875 -2.875 C 0.804688 -3.238281 0.921875 -3.628906 1.015625 -4.046875 C 1.117188 -4.460938 1.171875 -4.921875 1.171875 -5.421875 C 1.171875 -5.898438 1.132812 -6.304688 1.0625 -6.640625 C 0.988281 -6.972656 0.898438 -7.253906 0.796875 -7.484375 C 0.691406 -7.722656 0.585938 -7.9375 0.484375 -8.125 C 0.378906 -8.320312 0.289062 -8.507812 0.21875 -8.6875 C 0.144531 -8.875 0.109375 -9.082031 0.109375 -9.3125 Z M 0.109375 -9.3125 "/></g></g></g><g fill="#e3c026" fill-opacity="1"><g transform="translate(42.016789, 15.625812)"><g><path d="M 5.09375 5.0625 C 4.519531 5.0625 3.945312 4.992188 3.375 4.859375 C 2.800781 4.722656 2.28125 4.53125 1.8125 4.28125 C 1.34375 4.03125 0.96875 3.738281 0.6875 3.40625 C 0.40625 3.070312 0.265625 2.707031 0.265625 2.3125 C 0.265625 1.96875 0.335938 1.628906 0.484375 1.296875 C 0.640625 0.960938 0.847656 0.6875 1.109375 0.46875 C 1.367188 0.257812 1.660156 0.15625 1.984375 0.15625 C 2.179688 0.15625 2.363281 0.191406 2.53125 0.265625 C 2.695312 0.347656 2.863281 0.441406 3.03125 0.546875 C 3.207031 0.660156 3.398438 0.769531 3.609375 0.875 C 3.816406 0.988281 4.066406 1.082031 4.359375 1.15625 C 4.648438 1.238281 5 1.28125 5.40625 1.28125 C 5.59375 1.28125 5.769531 1.234375 5.9375 1.140625 C 6.101562 1.046875 6.238281 0.921875 6.34375 0.765625 C 6.457031 0.617188 6.515625 0.457031 6.515625 0.28125 C 6.523438 0.101562 6.460938 -0.0703125 6.328125 -0.25 C 6.242188 -0.15625 6.097656 -0.0703125 5.890625 0 C 5.691406 0.0625 5.46875 0.101562 5.21875 0.125 C 4.96875 0.15625 4.726562 0.171875 4.5 0.171875 C 3.820312 0.171875 3.222656 0.0234375 2.703125 -0.265625 C 2.191406 -0.554688 1.753906 -0.957031 1.390625 -1.46875 C 1.035156 -1.988281 0.765625 -2.582031 0.578125 -3.25 C 0.398438 -3.925781 0.3125 -4.644531 0.3125 -5.40625 C 0.3125 -6.15625 0.394531 -6.8125 0.5625 -7.375 C 0.738281 -7.945312 0.972656 -8.429688 1.265625 -8.828125 C 1.566406 -9.222656 1.894531 -9.550781 2.25 -9.8125 C 2.601562 -10.070312 2.96875 -10.273438 3.34375 -10.421875 C 3.71875 -10.578125 4.070312 -10.679688 4.40625 -10.734375 C 4.738281 -10.796875 5.019531 -10.828125 5.25 -10.828125 L 9.8125 -10.828125 C 9.925781 -10.828125 10.070312 -10.828125 10.25 -10.828125 C 10.4375 -10.828125 10.617188 -10.796875 10.796875 -10.734375 C 10.984375 -10.679688 11.140625 -10.585938 11.265625 -10.453125 C 11.398438 -10.328125 11.46875 -10.132812 11.46875 -9.875 C 11.46875 -9.613281 11.414062 -9.359375 11.3125 -9.109375 C 11.21875 -8.859375 11.101562 -8.59375 10.96875 -8.3125 C 10.832031 -8.03125 10.710938 -7.703125 10.609375 -7.328125 C 10.515625 -6.960938 10.46875 -6.539062 10.46875 -6.0625 C 10.46875 -5.445312 10.5 -4.894531 10.5625 -4.40625 C 10.625 -3.914062 10.6875 -3.4375 10.75 -2.96875 C 10.820312 -2.507812 10.882812 -2.03125 10.9375 -1.53125 C 11 -1.03125 11.03125 -0.460938 11.03125 0.171875 C 11.03125 0.804688 10.914062 1.414062 10.6875 2 C 10.46875 2.59375 10.113281 3.117188 9.625 3.578125 C 9.144531 4.035156 8.53125 4.394531 7.78125 4.65625 C 7.03125 4.925781 6.132812 5.0625 5.09375 5.0625 Z M 4.453125 -5.421875 C 4.453125 -4.609375 4.539062 -3.953125 4.71875 -3.453125 C 4.894531 -2.960938 5.125 -2.71875 5.40625 -2.71875 C 5.695312 -2.71875 5.929688 -2.960938 6.109375 -3.453125 C 6.285156 -3.953125 6.375 -4.609375 6.375 -5.421875 C 6.375 -6.234375 6.285156 -6.890625 6.109375 -7.390625 C 5.929688 -7.890625 5.695312 -8.140625 5.40625 -8.140625 C 5.125 -8.140625 4.894531 -7.890625 4.71875 -7.390625 C 4.539062 -6.890625 4.453125 -6.234375 4.453125 -5.421875 Z M 4.453125 -5.421875 "/></g></g></g><g fill="#e3c026" fill-opacity="1"><g transform="translate(2.599264, 31.896982)"><g><path d="M 0.265625 -5.421875 C 0.265625 -6.171875 0.347656 -6.832031 0.515625 -7.40625 C 0.691406 -7.976562 0.921875 -8.46875 1.203125 -8.875 C 1.492188 -9.289062 1.816406 -9.632812 2.171875 -9.90625 C 2.535156 -10.175781 2.90625 -10.390625 3.28125 -10.546875 C 3.65625 -10.710938 4.015625 -10.828125 4.359375 -10.890625 C 4.703125 -10.960938 5.003906 -11 5.265625 -11 C 5.734375 -11.007812 6.109375 -11 6.390625 -10.96875 C 6.671875 -10.945312 6.898438 -10.921875 7.078125 -10.890625 C 7.265625 -10.859375 7.453125 -10.84375 7.640625 -10.84375 C 8.015625 -10.84375 8.316406 -10.859375 8.546875 -10.890625 C 8.773438 -10.921875 8.972656 -10.945312 9.140625 -10.96875 C 9.316406 -10.988281 9.488281 -11 9.65625 -11 C 9.769531 -11 9.90625 -10.984375 10.0625 -10.953125 C 10.21875 -10.929688 10.367188 -10.875 10.515625 -10.78125 C 10.671875 -10.695312 10.796875 -10.578125 10.890625 -10.421875 C 10.992188 -10.265625 11.046875 -10.054688 11.046875 -9.796875 C 11.046875 -9.535156 11.007812 -9.269531 10.9375 -9 C 10.863281 -8.726562 10.78125 -8.425781 10.6875 -8.09375 C 10.59375 -7.757812 10.503906 -7.375 10.421875 -6.9375 C 10.347656 -6.507812 10.3125 -6.003906 10.3125 -5.421875 C 10.3125 -4.921875 10.335938 -4.492188 10.390625 -4.140625 C 10.441406 -3.796875 10.507812 -3.492188 10.59375 -3.234375 C 10.675781 -2.984375 10.757812 -2.757812 10.84375 -2.5625 C 10.925781 -2.375 10.992188 -2.191406 11.046875 -2.015625 C 11.109375 -1.835938 11.140625 -1.65625 11.140625 -1.46875 C 11.140625 -1.144531 11.015625 -0.859375 10.765625 -0.609375 C 10.523438 -0.367188 10.195312 -0.179688 9.78125 -0.046875 C 9.363281 0.0859375 8.898438 0.15625 8.390625 0.15625 C 8.171875 0.15625 8 0.125 7.875 0.0625 C 7.75 0 7.644531 -0.0703125 7.5625 -0.15625 C 7.488281 -0.238281 7.410156 -0.3125 7.328125 -0.375 C 7.242188 -0.445312 7.128906 -0.484375 6.984375 -0.484375 C 6.828125 -0.484375 6.6875 -0.445312 6.5625 -0.375 C 6.4375 -0.3125 6.296875 -0.238281 6.140625 -0.15625 C 5.984375 -0.0703125 5.789062 0 5.5625 0.0625 C 5.332031 0.125 5.03125 0.15625 4.65625 0.15625 C 4.050781 0.15625 3.484375 0.0234375 2.953125 -0.234375 C 2.421875 -0.503906 1.953125 -0.882812 1.546875 -1.375 C 1.148438 -1.863281 0.835938 -2.453125 0.609375 -3.140625 C 0.378906 -3.828125 0.265625 -4.585938 0.265625 -5.421875 Z M 5.359375 -8.140625 C 5.066406 -8.140625 4.832031 -7.890625 4.65625 -7.390625 C 4.476562 -6.890625 4.390625 -6.234375 4.390625 -5.421875 C 4.390625 -4.609375 4.476562 -3.953125 4.65625 -3.453125 C 4.832031 -2.960938 5.066406 -2.71875 5.359375 -2.71875 C 5.648438 -2.71875 5.882812 -2.960938 6.0625 -3.453125 C 6.238281 -3.953125 6.328125 -4.609375 6.328125 -5.421875 C 6.328125 -6.234375 6.238281 -6.890625 6.0625 -7.390625 C 5.882812 -7.890625 5.648438 -8.140625 5.359375 -8.140625 Z M 5.359375 -8.140625 "/></g></g></g><g fill="#e3c026" fill-opacity="1"><g transform="translate(13.837294, 31.896982)"><g><path d="M 0.109375 -0.96875 C 0.109375 -1.257812 0.128906 -1.503906 0.171875 -1.703125 C 0.222656 -1.898438 0.285156 -2.097656 0.359375 -2.296875 C 0.441406 -2.503906 0.519531 -2.742188 0.59375 -3.015625 C 0.675781 -3.296875 0.753906 -3.644531 0.828125 -4.0625 C 0.910156 -4.488281 0.972656 -5.019531 1.015625 -5.65625 C 1.066406 -6.289062 1.09375 -7.082031 1.09375 -8.03125 C 1.09375 -8.78125 1.066406 -9.425781 1.015625 -9.96875 C 0.972656 -10.519531 0.910156 -10.988281 0.828125 -11.375 C 0.753906 -11.769531 0.675781 -12.109375 0.59375 -12.390625 C 0.519531 -12.679688 0.441406 -12.941406 0.359375 -13.171875 C 0.285156 -13.410156 0.222656 -13.644531 0.171875 -13.875 C 0.128906 -14.113281 0.109375 -14.375 0.109375 -14.65625 C 0.109375 -14.914062 0.171875 -15.109375 0.296875 -15.234375 C 0.421875 -15.367188 0.578125 -15.460938 0.765625 -15.515625 C 0.953125 -15.578125 1.132812 -15.609375 1.3125 -15.609375 C 1.488281 -15.609375 1.632812 -15.609375 1.75 -15.609375 L 4.546875 -15.609375 C 4.671875 -15.609375 4.820312 -15.609375 5 -15.609375 C 5.175781 -15.609375 5.359375 -15.578125 5.546875 -15.515625 C 5.734375 -15.460938 5.890625 -15.367188 6.015625 -15.234375 C 6.140625 -15.109375 6.203125 -14.914062 6.203125 -14.65625 C 6.203125 -14.375 6.175781 -14.113281 6.125 -13.875 C 6.082031 -13.644531 6.019531 -13.410156 5.9375 -13.171875 C 5.863281 -12.941406 5.785156 -12.679688 5.703125 -12.390625 C 5.617188 -12.109375 5.539062 -11.769531 5.46875 -11.375 C 5.394531 -10.988281 5.332031 -10.519531 5.28125 -9.96875 C 5.238281 -9.425781 5.21875 -8.78125 5.21875 -8.03125 C 5.21875 -7.082031 5.238281 -6.289062 5.28125 -5.65625 C 5.332031 -5.019531 5.394531 -4.488281 5.46875 -4.0625 C 5.539062 -3.644531 5.617188 -3.296875 5.703125 -3.015625 C 5.785156 -2.742188 5.863281 -2.503906 5.9375 -2.296875 C 6.019531 -2.097656 6.082031 -1.898438 6.125 -1.703125 C 6.175781 -1.503906 6.203125 -1.257812 6.203125 -0.96875 C 6.203125 -0.707031 6.140625 -0.507812 6.015625 -0.375 C 5.890625 -0.238281 5.734375 -0.144531 5.546875 -0.09375 C 5.359375 -0.0390625 5.175781 -0.0078125 5 0 C 4.820312 0 4.671875 0 4.546875 0 L 1.75 0 C 1.632812 0 1.488281 0 1.3125 0 C 1.132812 -0.0078125 0.953125 -0.0390625 0.765625 -0.09375 C 0.578125 -0.144531 0.421875 -0.238281 0.296875 -0.375 C 0.171875 -0.507812 0.109375 -0.707031 0.109375 -0.96875 Z M 0.109375 -0.96875 "/></g></g></g><g fill="#e3c026" fill-opacity="1"><g transform="translate(20.150557, 31.896982)"><g><path d="M 5.40625 0.15625 C 4.320312 0.15625 3.394531 -0.0703125 2.625 -0.53125 C 1.863281 -1 1.28125 -1.648438 0.875 -2.484375 C 0.46875 -3.328125 0.265625 -4.3125 0.265625 -5.4375 C 0.265625 -6.550781 0.46875 -7.523438 0.875 -8.359375 C 1.28125 -9.191406 1.863281 -9.835938 2.625 -10.296875 C 3.394531 -10.765625 4.320312 -11 5.40625 -11 C 6.488281 -11 7.414062 -10.765625 8.1875 -10.296875 C 8.957031 -9.835938 9.539062 -9.191406 9.9375 -8.359375 C 10.34375 -7.523438 10.546875 -6.550781 10.546875 -5.4375 C 10.546875 -4.3125 10.34375 -3.328125 9.9375 -2.484375 C 9.539062 -1.648438 8.957031 -1 8.1875 -0.53125 C 7.414062 -0.0703125 6.488281 0.15625 5.40625 0.15625 Z M 4.453125 -5.40625 C 4.453125 -4.601562 4.539062 -3.953125 4.71875 -3.453125 C 4.894531 -2.953125 5.125 -2.703125 5.40625 -2.703125 C 5.695312 -2.703125 5.929688 -2.953125 6.109375 -3.453125 C 6.285156 -3.953125 6.375 -4.601562 6.375 -5.40625 C 6.375 -6.226562 6.285156 -6.890625 6.109375 -7.390625 C 5.929688 -7.890625 5.695312 -8.140625 5.40625 -8.140625 C 5.125 -8.140625 4.894531 -7.890625 4.71875 -7.390625 C 4.539062 -6.890625 4.453125 -6.226562 4.453125 -5.40625 Z M 4.453125 -5.40625 "/></g></g></g><g fill="#e3c026" fill-opacity="1"><g transform="translate(30.97639, 31.896982)"><g><path d="M 0.109375 -9.3125 C 0.109375 -9.5625 0.207031 -9.757812 0.40625 -9.90625 C 0.613281 -10.050781 0.867188 -10.164062 1.171875 -10.25 C 1.484375 -10.34375 1.804688 -10.429688 2.140625 -10.515625 C 2.265625 -10.554688 2.425781 -10.601562 2.625 -10.65625 C 2.820312 -10.707031 3.023438 -10.757812 3.234375 -10.8125 C 3.441406 -10.863281 3.625 -10.90625 3.78125 -10.9375 C 3.945312 -10.976562 4.066406 -11 4.140625 -11 C 4.347656 -11 4.550781 -10.914062 4.75 -10.75 C 4.957031 -10.582031 5.109375 -10.265625 5.203125 -9.796875 C 5.472656 -10.003906 5.773438 -10.195312 6.109375 -10.375 C 6.453125 -10.5625 6.8125 -10.710938 7.1875 -10.828125 C 7.5625 -10.941406 7.945312 -11 8.34375 -11 C 8.8125 -11 9.253906 -10.882812 9.671875 -10.65625 C 10.085938 -10.4375 10.421875 -10.113281 10.671875 -9.6875 C 10.929688 -9.257812 11.0625 -8.742188 11.0625 -8.140625 C 11.0625 -7.453125 10.957031 -6.910156 10.75 -6.515625 C 10.550781 -6.117188 10.265625 -5.835938 9.890625 -5.671875 C 9.515625 -5.503906 9.070312 -5.421875 8.5625 -5.421875 C 8.226562 -5.421875 7.96875 -5.472656 7.78125 -5.578125 C 7.601562 -5.679688 7.46875 -5.8125 7.375 -5.96875 C 7.289062 -6.132812 7.226562 -6.3125 7.1875 -6.5 C 7.144531 -6.6875 7.101562 -6.863281 7.0625 -7.03125 C 7.019531 -7.195312 6.953125 -7.332031 6.859375 -7.4375 C 6.765625 -7.539062 6.617188 -7.59375 6.421875 -7.59375 C 6.191406 -7.59375 6.003906 -7.523438 5.859375 -7.390625 C 5.722656 -7.265625 5.617188 -7.09375 5.546875 -6.875 C 5.472656 -6.664062 5.414062 -6.429688 5.375 -6.171875 C 5.34375 -5.921875 5.320312 -5.671875 5.3125 -5.421875 C 5.300781 -5.179688 5.296875 -4.960938 5.296875 -4.765625 C 5.296875 -4.285156 5.34375 -3.863281 5.4375 -3.5 C 5.539062 -3.132812 5.660156 -2.804688 5.796875 -2.515625 C 5.929688 -2.234375 6.046875 -1.96875 6.140625 -1.71875 C 6.242188 -1.46875 6.296875 -1.21875 6.296875 -0.96875 C 6.296875 -0.707031 6.238281 -0.507812 6.125 -0.375 C 6.019531 -0.238281 5.882812 -0.144531 5.71875 -0.09375 C 5.550781 -0.0390625 5.382812 -0.0078125 5.21875 0 C 5.0625 0 4.925781 0 4.8125 0 L 1.671875 0 C 1.554688 0 1.414062 0 1.25 0 C 1.09375 -0.0078125 0.929688 -0.0390625 0.765625 -0.09375 C 0.597656 -0.144531 0.457031 -0.238281 0.34375 -0.375 C 0.238281 -0.507812 0.1875 -0.707031 0.1875 -0.96875 C 0.1875 -1.21875 0.234375 -1.46875 0.328125 -1.71875 C 0.429688 -1.96875 0.546875 -2.234375 0.671875 -2.515625 C 0.804688 -2.804688 0.921875 -3.132812 1.015625 -3.5 C 1.117188 -3.863281 1.171875 -4.285156 1.171875 -4.765625 C 1.171875 -5.335938 1.132812 -5.828125 1.0625 -6.234375 C 0.988281 -6.648438 0.898438 -7.003906 0.796875 -7.296875 C 0.691406 -7.585938 0.585938 -7.84375 0.484375 -8.0625 C 0.378906 -8.28125 0.289062 -8.488281 0.21875 -8.6875 C 0.144531 -8.882812 0.109375 -9.09375 0.109375 -9.3125 Z M 0.109375 -9.3125 "/></g></g></g><g fill="#e3c026" fill-opacity="1"><g transform="translate(42.149343, 31.896982)"><g><path d="M 0.265625 -5.421875 C 0.265625 -6.109375 0.378906 -6.785156 0.609375 -7.453125 C 0.847656 -8.117188 1.207031 -8.71875 1.6875 -9.25 C 2.175781 -9.78125 2.785156 -10.203125 3.515625 -10.515625 C 4.253906 -10.835938 5.125 -11 6.125 -11 C 6.6875 -11 7.222656 -10.925781 7.734375 -10.78125 C 8.242188 -10.644531 8.695312 -10.4375 9.09375 -10.15625 C 9.5 -9.875 9.816406 -9.519531 10.046875 -9.09375 C 10.285156 -8.664062 10.40625 -8.164062 10.40625 -7.59375 C 10.40625 -6.957031 10.304688 -6.410156 10.109375 -5.953125 C 9.921875 -5.492188 9.664062 -5.101562 9.34375 -4.78125 C 9.03125 -4.46875 8.675781 -4.207031 8.28125 -4 C 7.894531 -3.789062 7.503906 -3.625 7.109375 -3.5 C 6.722656 -3.382812 6.390625 -3.328125 6.109375 -3.328125 C 5.828125 -3.335938 5.601562 -3.34375 5.4375 -3.34375 C 5.34375 -3.34375 5.269531 -3.332031 5.21875 -3.3125 C 5.175781 -3.300781 5.15625 -3.265625 5.15625 -3.203125 C 5.15625 -3.085938 5.21875 -2.992188 5.34375 -2.921875 C 5.46875 -2.847656 5.617188 -2.796875 5.796875 -2.765625 C 5.972656 -2.734375 6.132812 -2.71875 6.28125 -2.71875 C 6.664062 -2.71875 6.992188 -2.765625 7.265625 -2.859375 C 7.535156 -2.953125 7.769531 -3.0625 7.96875 -3.1875 C 8.175781 -3.3125 8.375 -3.421875 8.5625 -3.515625 C 8.75 -3.617188 8.953125 -3.671875 9.171875 -3.671875 C 9.421875 -3.671875 9.632812 -3.609375 9.8125 -3.484375 C 9.988281 -3.367188 10.128906 -3.21875 10.234375 -3.03125 C 10.347656 -2.84375 10.429688 -2.648438 10.484375 -2.453125 C 10.546875 -2.265625 10.578125 -2.09375 10.578125 -1.9375 C 10.578125 -1.601562 10.414062 -1.273438 10.09375 -0.953125 C 9.78125 -0.640625 9.296875 -0.375 8.640625 -0.15625 C 7.992188 0.0507812 7.15625 0.15625 6.125 0.15625 C 5.175781 0.15625 4.335938 0 3.609375 -0.3125 C 2.878906 -0.625 2.265625 -1.046875 1.765625 -1.578125 C 1.273438 -2.117188 0.898438 -2.71875 0.640625 -3.375 C 0.390625 -4.039062 0.265625 -4.722656 0.265625 -5.421875 Z M 4.453125 -6.578125 C 4.273438 -6.109375 4.210938 -5.726562 4.265625 -5.4375 C 4.316406 -5.15625 4.472656 -5.015625 4.734375 -5.015625 C 5.015625 -5.015625 5.289062 -5.15625 5.5625 -5.4375 C 5.84375 -5.726562 6.070312 -6.109375 6.25 -6.578125 C 6.4375 -7.046875 6.503906 -7.421875 6.453125 -7.703125 C 6.398438 -7.992188 6.238281 -8.140625 5.96875 -8.140625 C 5.695312 -8.140625 5.421875 -7.992188 5.140625 -7.703125 C 4.867188 -7.421875 4.640625 -7.046875 4.453125 -6.578125 Z M 4.453125 -6.578125 "/></g></g></g></svg>